<?xml version="1.0" encoding="UTF-8" standalone="no"?>
<!DOCTYPE svg PUBLIC "-//W3C//DTD SVG 1.1//EN"
 "http://www.w3.org/Graphics/SVG/1.1/DTD/svg11.dtd">
<!-- Generated by graphviz version 2.50.0 (0)
 -->
<!-- Title: G Pages: 1 -->
<svg width="375pt" height="270pt"
 viewBox="0.00 0.00 374.83 269.70" xmlns="http://www.w3.org/2000/svg" xmlns:xlink="http://www.w3.org/1999/xlink">
<g id="graph0" class="graph" transform="scale(1 1) rotate(0) translate(4 265.7)">
<title>G</title>
<polygon fill="white" stroke="transparent" points="-4,4 -4,-265.7 370.83,-265.7 370.83,4 -4,4"/>
<!-- board.cache_hierarchy.ruby_system.network.routers0 -->
<g id="node1" class="node">
<title>board.cache_hierarchy.ruby_system.network.routers0</title>
<path fill="#cce6fc" stroke="#000000" d="M118.29,-111.91C118.29,-111.91 148.29,-111.91 148.29,-111.91 154.29,-111.91 160.29,-117.91 160.29,-123.91 160.29,-123.91 160.29,-135.91 160.29,-135.91 160.29,-141.91 154.29,-147.91 148.29,-147.91 148.29,-147.91 118.29,-147.91 118.29,-147.91 112.29,-147.91 106.29,-141.91 106.29,-135.91 106.29,-135.91 106.29,-123.91 106.29,-123.91 106.29,-117.91 112.29,-111.91 118.29,-111.91"/>
<text text-anchor="middle" x="133.29" y="-126.21" font-family="Arial" font-size="14.00" fill="#000000">R 0</text>
</g>
<!-- board.cache_hierarchy.ruby_system.network.routers1 -->
<g id="node2" class="node">
<title>board.cache_hierarchy.ruby_system.network.routers1</title>
<path fill="#cce6fc" stroke="#000000" d="M203.08,-116.63C203.08,-116.63 233.08,-116.63 233.08,-116.63 239.08,-116.63 245.08,-122.63 245.08,-128.63 245.08,-128.63 245.08,-140.63 245.08,-140.63 245.08,-146.63 239.08,-152.63 233.08,-152.63 233.08,-152.63 203.08,-152.63 203.08,-152.63 197.08,-152.63 191.08,-146.63 191.08,-140.63 191.08,-140.63 191.08,-128.63 191.08,-128.63 191.08,-122.63 197.08,-116.63 203.08,-116.63"/>
<text text-anchor="middle" x="218.08" y="-130.93" font-family="Arial" font-size="14.00" fill="#000000">R 1</text>
</g>
<!-- board.cache_hierarchy.ruby_system.network.routers0&#45;&#45;board.cache_hierarchy.ruby_system.network.routers1 -->
<g id="edge1" class="edge">
<title>board.cache_hierarchy.ruby_system.network.routers0&#45;&#45;board.cache_hierarchy.ruby_system.network.routers1</title>
<path fill="none" stroke="#042d50" d="M160.58,-131.43C166.94,-131.79 173.81,-132.17 180.52,-132.54"/>
<polygon fill="#042d50" stroke="#042d50" points="180.66,-136.05 190.83,-133.11 181.04,-129.06 180.66,-136.05"/>
</g>
<!-- board.cache_hierarchy.ruby_system.network.routers2 -->
<g id="node3" class="node">
<title>board.cache_hierarchy.ruby_system.network.routers2</title>
<path fill="#cce6fc" stroke="#000000" d="M140.07,-72.18C140.07,-72.18 170.07,-72.18 170.07,-72.18 176.07,-72.18 182.07,-78.18 182.07,-84.18 182.07,-84.18 182.07,-96.18 182.07,-96.18 182.07,-102.18 176.07,-108.18 170.07,-108.18 170.07,-108.18 140.07,-108.18 140.07,-108.18 134.07,-108.18 128.07,-102.18 128.07,-96.18 128.07,-96.18 128.07,-84.18 128.07,-84.18 128.07,-78.18 134.07,-72.18 140.07,-72.18"/>
<text text-anchor="middle" x="155.07" y="-86.48" font-family="Arial" font-size="14.00" fill="#000000">R 2</text>
</g>
<!-- board.cache_hierarchy.ruby_system.network.routers0&#45;&#45;board.cache_hierarchy.ruby_system.network.routers2 -->
<g id="edge2" class="edge">
<title>board.cache_hierarchy.ruby_system.network.routers0&#45;&#45;board.cache_hierarchy.ruby_system.network.routers2</title>
<path fill="none" stroke="#042d50" d="M150.85,-111.89C150.93,-111.74 151.01,-111.59 151.09,-111.44"/>
<polygon fill="#042d50" stroke="#042d50" points="151.37,-118.82 152.63,-108.3 145.08,-115.74 151.37,-118.82"/>
</g>
<!-- board.cache_hierarchy.ruby_system.network.routers3 -->
<g id="node4" class="node">
<title>board.cache_hierarchy.ruby_system.network.routers3</title>
<path fill="#cce6fc" stroke="#000000" d="M188.7,-140.22C188.7,-140.22 218.7,-140.22 218.7,-140.22 224.7,-140.22 230.7,-146.22 230.7,-152.22 230.7,-152.22 230.7,-164.22 230.7,-164.22 230.7,-170.22 224.7,-176.22 218.7,-176.22 218.7,-176.22 188.7,-176.22 188.7,-176.22 182.7,-176.22 176.7,-170.22 176.7,-164.22 176.7,-164.22 176.7,-152.22 176.7,-152.22 176.7,-146.22 182.7,-140.22 188.7,-140.22"/>
<text text-anchor="middle" x="203.7" y="-154.52" font-family="Arial" font-size="14.00" fill="#000000">R 3</text>
</g>
<!-- board.cache_hierarchy.ruby_system.network.routers0&#45;&#45;board.cache_hierarchy.ruby_system.network.routers3 -->
<g id="edge3" class="edge">
<title>board.cache_hierarchy.ruby_system.network.routers0&#45;&#45;board.cache_hierarchy.ruby_system.network.routers3</title>
<path fill="none" stroke="#042d50" d="M160.26,-147.94C162.52,-148.92 164.83,-149.88 167.16,-150.8"/>
<polygon fill="#042d50" stroke="#042d50" points="166.04,-154.12 176.64,-154.32 168.48,-147.56 166.04,-154.12"/>
</g>
<!-- board.cache_hierarchy.ruby_system.network.routers4 -->
<g id="node5" class="node">
<title>board.cache_hierarchy.ruby_system.network.routers4</title>
<path fill="#cce6fc" stroke="#000000" d="M185.96,-69.97C185.96,-69.97 215.96,-69.97 215.96,-69.97 221.96,-69.97 227.96,-75.97 227.96,-81.97 227.96,-81.97 227.96,-93.97 227.96,-93.97 227.96,-99.97 221.96,-105.97 215.96,-105.97 215.96,-105.97 185.96,-105.97 185.96,-105.97 179.96,-105.97 173.96,-99.97 173.96,-93.97 173.96,-93.97 173.96,-81.97 173.96,-81.97 173.96,-75.97 179.96,-69.97 185.96,-69.97"/>
<text text-anchor="middle" x="200.96" y="-84.27" font-family="Arial" font-size="14.00" fill="#000000">R 4</text>
</g>
<!-- board.cache_hierarchy.ruby_system.network.routers0&#45;&#45;board.cache_hierarchy.ruby_system.network.routers4 -->
<g id="edge4" class="edge">
<title>board.cache_hierarchy.ruby_system.network.routers0&#45;&#45;board.cache_hierarchy.ruby_system.network.routers4</title>
<path fill="none" stroke="#042d50" d="M160.37,-120.75C165.27,-118.02 170.37,-114.95 175.24,-111.79"/>
<polygon fill="#042d50" stroke="#042d50" points="177.34,-114.59 183.65,-106.08 173.41,-108.8 177.34,-114.59"/>
</g>
<!-- board.cache_hierarchy.ruby_system.network.routers5 -->
<g id="node6" class="node">
<title>board.cache_hierarchy.ruby_system.network.routers5</title>
<path fill="#cce6fc" stroke="#000000" d="M141.37,-152.13C141.37,-152.13 171.37,-152.13 171.37,-152.13 177.37,-152.13 183.37,-158.13 183.37,-164.13 183.37,-164.13 183.37,-176.13 183.37,-176.13 183.37,-182.13 177.37,-188.13 171.37,-188.13 171.37,-188.13 141.37,-188.13 141.37,-188.13 135.37,-188.13 129.37,-182.13 129.37,-176.13 129.37,-176.13 129.37,-164.13 129.37,-164.13 129.37,-158.13 135.37,-152.13 141.37,-152.13"/>
<text text-anchor="middle" x="156.37" y="-166.43" font-family="Arial" font-size="14.00" fill="#000000">R 5</text>
</g>
<!-- board.cache_hierarchy.ruby_system.network.routers0&#45;&#45;board.cache_hierarchy.ruby_system.network.routers5 -->
<g id="edge5" class="edge">
<title>board.cache_hierarchy.ruby_system.network.routers0&#45;&#45;board.cache_hierarchy.ruby_system.network.routers5</title>
<path fill="none" stroke="#042d50" d="M136.21,-148.15C136.28,-148.31 136.36,-148.48 136.44,-148.64"/>
<polygon fill="#042d50" stroke="#042d50" points="130.5,-144.82 138.23,-152.06 136.7,-141.58 130.5,-144.82"/>
</g>
<!-- board.cache_hierarchy.ruby_system.network.routers1&#45;&#45;board.cache_hierarchy.ruby_system.network.routers2 -->
<g id="edge6" class="edge">
<title>board.cache_hierarchy.ruby_system.network.routers1&#45;&#45;board.cache_hierarchy.ruby_system.network.routers2</title>
<path fill="none" stroke="#042d50" d="M192.45,-116.55C191.38,-115.79 190.3,-115.03 189.21,-114.26"/>
<polygon fill="#042d50" stroke="#042d50" points="191.07,-111.29 180.88,-108.39 187.03,-117.01 191.07,-111.29"/>
</g>
<!-- board.cache_hierarchy.ruby_system.network.routers1&#45;&#45;board.cache_hierarchy.ruby_system.network.routers3 -->
<g id="edge7" class="edge">
<title>board.cache_hierarchy.ruby_system.network.routers1&#45;&#45;board.cache_hierarchy.ruby_system.network.routers3</title>
<path fill="none" stroke="#042d50" d="M201.54,-152.68C201.54,-152.75 201.53,-152.83 201.53,-152.9"/>
<polygon fill="#042d50" stroke="#042d50" points="198.49,-142.98 201.51,-153.13 205.49,-143.31 198.49,-142.98"/>
</g>
<!-- board.cache_hierarchy.ruby_system.network.routers1&#45;&#45;board.cache_hierarchy.ruby_system.network.routers4 -->
<g id="edge8" class="edge">
<title>board.cache_hierarchy.ruby_system.network.routers1&#45;&#45;board.cache_hierarchy.ruby_system.network.routers4</title>
<path fill="none" stroke="#042d50" d="M218.31,-116.62C218.22,-116.29 218.13,-115.96 218.04,-115.64"/>
<polygon fill="#042d50" stroke="#042d50" points="221.28,-114.3 214.71,-105.99 214.66,-116.59 221.28,-114.3"/>
</g>
<!-- board.cache_hierarchy.ruby_system.network.routers1&#45;&#45;board.cache_hierarchy.ruby_system.network.routers5 -->
<g id="edge9" class="edge">
<title>board.cache_hierarchy.ruby_system.network.routers1&#45;&#45;board.cache_hierarchy.ruby_system.network.routers5</title>
<path fill="none" stroke="#042d50" d="M190.75,-142.74C188.31,-144.02 185.83,-145.39 183.39,-146.8"/>
<polygon fill="#042d50" stroke="#042d50" points="181.5,-143.86 174.8,-152.06 185.15,-149.83 181.5,-143.86"/>
</g>
<!-- board.cache_hierarchy.ruby_system.network.routers2&#45;&#45;board.cache_hierarchy.ruby_system.network.routers0 -->
<g id="edge10" class="edge">
<title>board.cache_hierarchy.ruby_system.network.routers2&#45;&#45;board.cache_hierarchy.ruby_system.network.routers0</title>
<path fill="none" stroke="#042d50" d="M137.51,-108.2C137.43,-108.35 137.36,-108.5 137.28,-108.65"/>
<polygon fill="#042d50" stroke="#042d50" points="137,-101.27 135.74,-111.79 143.28,-104.35 137,-101.27"/>
</g>
<!-- board.cache_hierarchy.ruby_system.network.routers2&#45;&#45;board.cache_hierarchy.ruby_system.network.routers3 -->
<g id="edge11" class="edge">
<title>board.cache_hierarchy.ruby_system.network.routers2&#45;&#45;board.cache_hierarchy.ruby_system.network.routers3</title>
<path fill="none" stroke="#042d50" d="M168.11,-108.41C173.23,-115.58 179.21,-123.95 184.79,-131.76"/>
<polygon fill="#042d50" stroke="#042d50" points="181.97,-133.84 190.63,-139.94 187.67,-129.77 181.97,-133.84"/>
</g>
<!-- board.cache_hierarchy.ruby_system.network.routers2&#45;&#45;board.cache_hierarchy.ruby_system.network.routers4 -->
<g id="edge12" class="edge">
<title>board.cache_hierarchy.ruby_system.network.routers2&#45;&#45;board.cache_hierarchy.ruby_system.network.routers4</title>
<path fill="none" stroke="#042d50" d="M182.08,-95.56C182.16,-95.55 182.24,-95.54 182.32,-95.53"/>
<polygon fill="#042d50" stroke="#042d50" points="172.94,-99.95 182.56,-95.51 172.27,-92.99 172.94,-99.95"/>
</g>
<!-- board.cache_hierarchy.ruby_system.network.routers2&#45;&#45;board.cache_hierarchy.ruby_system.network.routers5 -->
<g id="edge13" class="edge">
<title>board.cache_hierarchy.ruby_system.network.routers2&#45;&#45;board.cache_hierarchy.ruby_system.network.routers5</title>
<path fill="none" stroke="#042d50" d="M149.61,-108.41C148.77,-118.28 148.73,-130.68 149.42,-141.77"/>
<polygon fill="#042d50" stroke="#042d50" points="145.94,-142.22 150.3,-151.88 152.92,-141.61 145.94,-142.22"/>
</g>
<!-- board.cache_hierarchy.ruby_system.network.routers3&#45;&#45;board.cache_hierarchy.ruby_system.network.routers0 -->
<g id="edge14" class="edge">
<title>board.cache_hierarchy.ruby_system.network.routers3&#45;&#45;board.cache_hierarchy.ruby_system.network.routers0</title>
<path fill="none" stroke="#042d50" d="M176.74,-140.19C174.47,-139.21 172.16,-138.25 169.84,-137.34"/>
<polygon fill="#042d50" stroke="#042d50" points="170.95,-134.02 160.36,-133.82 168.52,-140.58 170.95,-134.02"/>
</g>
<!-- board.cache_hierarchy.ruby_system.network.routers3&#45;&#45;board.cache_hierarchy.ruby_system.network.routers1 -->
<g id="edge15" class="edge">
<title>board.cache_hierarchy.ruby_system.network.routers3&#45;&#45;board.cache_hierarchy.ruby_system.network.routers1</title>
<path fill="none" stroke="#042d50" d="M220.24,-140.18C220.24,-140.1 220.25,-140.02 220.25,-139.95"/>
<polygon fill="#042d50" stroke="#042d50" points="223.29,-149.88 220.26,-139.72 216.29,-149.54 223.29,-149.88"/>
</g>
<!-- board.cache_hierarchy.ruby_system.network.routers3&#45;&#45;board.cache_hierarchy.ruby_system.network.routers4 -->
<g id="edge16" class="edge">
<title>board.cache_hierarchy.ruby_system.network.routers3&#45;&#45;board.cache_hierarchy.ruby_system.network.routers4</title>
<path fill="none" stroke="#042d50" d="M203,-140.13C202.71,-132.9 202.38,-124.39 202.07,-116.36"/>
<polygon fill="#042d50" stroke="#042d50" points="205.56,-116.1 201.67,-106.25 198.56,-116.38 205.56,-116.1"/>
</g>
<!-- board.cache_hierarchy.ruby_system.network.routers3&#45;&#45;board.cache_hierarchy.ruby_system.network.routers5 -->
<g id="edge17" class="edge">
<title>board.cache_hierarchy.ruby_system.network.routers3&#45;&#45;board.cache_hierarchy.ruby_system.network.routers5</title>
<path fill="none" stroke="#042d50" d="M176.46,-158.14C176.41,-158.15 176.37,-158.16 176.33,-158.18"/>
<polygon fill="#042d50" stroke="#042d50" points="184.91,-152.18 176.2,-158.21 186.77,-158.92 184.91,-152.18"/>
</g>
<!-- board.cache_hierarchy.ruby_system.network.routers4&#45;&#45;board.cache_hierarchy.ruby_system.network.routers0 -->
<g id="edge18" class="edge">
<title>board.cache_hierarchy.ruby_system.network.routers4&#45;&#45;board.cache_hierarchy.ruby_system.network.routers0</title>
<path fill="none" stroke="#042d50" d="M173.88,-97.14C168.98,-99.87 163.88,-102.94 159.01,-106.1"/>
<polygon fill="#042d50" stroke="#042d50" points="156.91,-103.3 150.6,-111.81 160.84,-109.09 156.91,-103.3"/>
</g>
<!-- board.cache_hierarchy.ruby_system.network.routers4&#45;&#45;board.cache_hierarchy.ruby_system.network.routers1 -->
<g id="edge19" class="edge">
<title>board.cache_hierarchy.ruby_system.network.routers4&#45;&#45;board.cache_hierarchy.ruby_system.network.routers1</title>
<path fill="none" stroke="#042d50" d="M200.72,-105.98C200.81,-106.31 200.9,-106.64 201,-106.97"/>
<polygon fill="#042d50" stroke="#042d50" points="197.75,-108.3 204.33,-116.61 204.37,-106.01 197.75,-108.3"/>
</g>
<!-- board.cache_hierarchy.ruby_system.network.routers4&#45;&#45;board.cache_hierarchy.ruby_system.network.routers2 -->
<g id="edge20" class="edge">
<title>board.cache_hierarchy.ruby_system.network.routers4&#45;&#45;board.cache_hierarchy.ruby_system.network.routers2</title>
<path fill="none" stroke="#042d50" d="M173.95,-82.59C173.87,-82.6 173.79,-82.61 173.71,-82.61"/>
<polygon fill="#042d50" stroke="#042d50" points="183.1,-78.2 173.48,-82.64 183.77,-85.16 183.1,-78.2"/>
</g>
<!-- board.cache_hierarchy.ruby_system.network.routers4&#45;&#45;board.cache_hierarchy.ruby_system.network.routers5 -->
<g id="edge21" class="edge">
<title>board.cache_hierarchy.ruby_system.network.routers4&#45;&#45;board.cache_hierarchy.ruby_system.network.routers5</title>
<path fill="none" stroke="#042d50" d="M191.06,-106.21C185.18,-117.06 177.6,-131.02 171.03,-143.13"/>
<polygon fill="#042d50" stroke="#042d50" points="167.93,-141.49 166.24,-151.95 174.09,-144.83 167.93,-141.49"/>
</g>
<!-- board.cache_hierarchy.ruby_system.network.routers5&#45;&#45;board.cache_hierarchy.ruby_system.network.routers0 -->
<g id="edge22" class="edge">
<title>board.cache_hierarchy.ruby_system.network.routers5&#45;&#45;board.cache_hierarchy.ruby_system.network.routers0</title>
<path fill="none" stroke="#042d50" d="M153.46,-151.9C153.38,-151.73 153.3,-151.57 153.22,-151.41"/>
<polygon fill="#042d50" stroke="#042d50" points="159.17,-155.23 151.43,-147.99 152.97,-158.47 159.17,-155.23"/>
</g>
<!-- board.cache_hierarchy.ruby_system.network.routers5&#45;&#45;board.cache_hierarchy.ruby_system.network.routers1 -->
<g id="edge23" class="edge">
<title>board.cache_hierarchy.ruby_system.network.routers5&#45;&#45;board.cache_hierarchy.ruby_system.network.routers1</title>
<path fill="none" stroke="#042d50" d="M183.7,-162.03C186.14,-160.74 188.62,-159.38 191.06,-157.96"/>
<polygon fill="#042d50" stroke="#042d50" points="192.95,-160.91 199.65,-152.7 189.3,-154.94 192.95,-160.91"/>
</g>
<!-- board.cache_hierarchy.ruby_system.network.routers5&#45;&#45;board.cache_hierarchy.ruby_system.network.routers2 -->
<g id="edge24" class="edge">
<title>board.cache_hierarchy.ruby_system.network.routers5&#45;&#45;board.cache_hierarchy.ruby_system.network.routers2</title>
<path fill="none" stroke="#042d50" d="M161.84,-151.9C162.67,-142.03 162.72,-129.63 162.03,-118.54"/>
<polygon fill="#042d50" stroke="#042d50" points="165.51,-118.09 161.15,-108.43 158.53,-118.7 165.51,-118.09"/>
</g>
<!-- board.cache_hierarchy.ruby_system.network.routers5&#45;&#45;board.cache_hierarchy.ruby_system.network.routers3 -->
<g id="edge25" class="edge">
<title>board.cache_hierarchy.ruby_system.network.routers5&#45;&#45;board.cache_hierarchy.ruby_system.network.routers3</title>
<path fill="none" stroke="#042d50" d="M183.62,-170.22C183.66,-170.2 183.71,-170.19 183.75,-170.18"/>
<polygon fill="#042d50" stroke="#042d50" points="175.17,-176.18 183.88,-170.14 173.31,-169.43 175.17,-176.18"/>
</g>
<!-- board.cache_hierarchy.ruby_system.l1_controllers0 -->
<g id="node7" class="node">
<title>board.cache_hierarchy.ruby_system.l1_controllers0</title>
<path fill="#e5bcd0" stroke="#000000" d="M12,-113.76C12,-113.76 92,-113.76 92,-113.76 98,-113.76 104,-119.76 104,-125.76 104,-125.76 104,-137.76 104,-137.76 104,-143.76 98,-149.76 92,-149.76 92,-149.76 12,-149.76 12,-149.76 6,-149.76 0,-143.76 0,-137.76 0,-137.76 0,-125.76 0,-125.76 0,-119.76 6,-113.76 12,-113.76"/>
<text text-anchor="middle" x="52" y="-128.06" font-family="Arial" font-size="14.00" fill="#000000">l1_controllers0</text>
</g>
<!-- board.cache_hierarchy.ruby_system.l1_controllers0&#45;&#45;board.cache_hierarchy.ruby_system.network.routers0 -->
<g id="edge26" class="edge">
<title>board.cache_hierarchy.ruby_system.l1_controllers0&#45;&#45;board.cache_hierarchy.ruby_system.network.routers0</title>
<path fill="none" stroke="#381526" d="M105.78,-130.54C105.85,-130.54 105.93,-130.54 106.01,-130.53"/>
<polygon fill="#381526" stroke="#381526" points="114.32,-126.84 104.4,-130.57 114.48,-133.84 114.32,-126.84"/>
<polygon fill="#381526" stroke="#381526" points="96.32,-134.26 106.23,-130.53 96.15,-127.26 96.32,-134.26"/>
</g>
<!-- board.cache_hierarchy.ruby_system.l1_controllers1 -->
<g id="node8" class="node">
<title>board.cache_hierarchy.ruby_system.l1_controllers1</title>
<path fill="#e5bcd0" stroke="#000000" d="M223.09,-198.13C223.09,-198.13 303.09,-198.13 303.09,-198.13 309.09,-198.13 315.09,-204.13 315.09,-210.13 315.09,-210.13 315.09,-222.13 315.09,-222.13 315.09,-228.13 309.09,-234.13 303.09,-234.13 303.09,-234.13 223.09,-234.13 223.09,-234.13 217.09,-234.13 211.09,-228.13 211.09,-222.13 211.09,-222.13 211.09,-210.13 211.09,-210.13 211.09,-204.13 217.09,-198.13 223.09,-198.13"/>
<text text-anchor="middle" x="263.09" y="-212.43" font-family="Arial" font-size="14.00" fill="#000000">l1_controllers1</text>
</g>
<!-- board.cache_hierarchy.ruby_system.l1_controllers1&#45;&#45;board.cache_hierarchy.ruby_system.network.routers1 -->
<g id="edge27" class="edge">
<title>board.cache_hierarchy.ruby_system.l1_controllers1&#45;&#45;board.cache_hierarchy.ruby_system.network.routers1</title>
<path fill="none" stroke="#381526" d="M248.07,-188.94C243.18,-180.08 237.75,-170.25 232.88,-161.43"/>
<polygon fill="#381526" stroke="#381526" points="245.2,-190.98 253.1,-198.04 251.33,-187.6 245.2,-190.98"/>
<polygon fill="#381526" stroke="#381526" points="235.94,-159.73 228.04,-152.67 229.81,-163.11 235.94,-159.73"/>
</g>
<!-- board.cache_hierarchy.ruby_system.l2_controllers -->
<g id="node9" class="node">
<title>board.cache_hierarchy.ruby_system.l2_controllers</title>
<path fill="#e5bcd0" stroke="#000000" d="M78.48,-1.27C78.48,-1.27 151.48,-1.27 151.48,-1.27 157.48,-1.27 163.48,-7.27 163.48,-13.27 163.48,-13.27 163.48,-25.27 163.48,-25.27 163.48,-31.27 157.48,-37.27 151.48,-37.27 151.48,-37.27 78.48,-37.27 78.48,-37.27 72.48,-37.27 66.48,-31.27 66.48,-25.27 66.48,-25.27 66.48,-13.27 66.48,-13.27 66.48,-7.27 72.48,-1.27 78.48,-1.27"/>
<text text-anchor="middle" x="114.98" y="-15.57" font-family="Arial" font-size="14.00" fill="#000000">l2_controllers</text>
</g>
<!-- board.cache_hierarchy.ruby_system.l2_controllers&#45;&#45;board.cache_hierarchy.ruby_system.network.routers2 -->
<g id="edge28" class="edge">
<title>board.cache_hierarchy.ruby_system.l2_controllers&#45;&#45;board.cache_hierarchy.ruby_system.network.routers2</title>
<path fill="none" stroke="#381526" d="M130.3,-46.36C133.37,-51.79 136.6,-57.5 139.67,-62.94"/>
<polygon fill="#381526" stroke="#381526" points="133.27,-44.51 125.3,-37.53 127.18,-47.96 133.27,-44.51"/>
<polygon fill="#381526" stroke="#381526" points="136.67,-64.75 144.64,-71.73 142.77,-61.3 136.67,-64.75"/>
</g>
<!-- board.cache_hierarchy.ruby_system.directory_controllers -->
<g id="node10" class="node">
<title>board.cache_hierarchy.ruby_system.directory_controllers</title>
<path fill="#e5bcd0" stroke="#000000" d="M240.83,-127.86C240.83,-127.86 354.83,-127.86 354.83,-127.86 360.83,-127.86 366.83,-133.86 366.83,-139.86 366.83,-139.86 366.83,-151.86 366.83,-151.86 366.83,-157.86 360.83,-163.86 354.83,-163.86 354.83,-163.86 240.83,-163.86 240.83,-163.86 234.83,-163.86 228.83,-157.86 228.83,-151.86 228.83,-151.86 228.83,-139.86 228.83,-139.86 228.83,-133.86 234.83,-127.86 240.83,-127.86"/>
<text text-anchor="middle" x="297.83" y="-142.16" font-family="Arial" font-size="14.00" fill="#000000">directory_controllers</text>
</g>
<!-- board.cache_hierarchy.ruby_system.directory_controllers&#45;&#45;board.cache_hierarchy.ruby_system.network.routers3 -->
<g id="edge29" class="edge">
<title>board.cache_hierarchy.ruby_system.directory_controllers&#45;&#45;board.cache_hierarchy.ruby_system.network.routers3</title>
<path fill="none" stroke="#381526" d="M228.27,-155C228.24,-155 228.21,-155 228.19,-155.01"/>
<polygon fill="#381526" stroke="#381526" points="218.98,-159.75 228.43,-154.97 218.06,-152.81 218.98,-159.75"/>
<polygon fill="#381526" stroke="#381526" points="237.56,-150.23 228.1,-155.02 238.48,-157.17 237.56,-150.23"/>
</g>
<!-- board.cache_hierarchy.ruby_system.dma_controllers0 -->
<g id="node11" class="node">
<title>board.cache_hierarchy.ruby_system.dma_controllers0</title>
<path fill="#e5bcd0" stroke="#000000" d="M194.18,-0.5C194.18,-0.5 291.18,-0.5 291.18,-0.5 297.18,-0.5 303.18,-6.5 303.18,-12.5 303.18,-12.5 303.18,-24.5 303.18,-24.5 303.18,-30.5 297.18,-36.5 291.18,-36.5 291.18,-36.5 194.18,-36.5 194.18,-36.5 188.18,-36.5 182.18,-30.5 182.18,-24.5 182.18,-24.5 182.18,-12.5 182.18,-12.5 182.18,-6.5 188.18,-0.5 194.18,-0.5"/>
<text text-anchor="middle" x="242.68" y="-14.8" font-family="Arial" font-size="14.00" fill="#000000">dma_controllers0</text>
</g>
<!-- board.cache_hierarchy.ruby_system.dma_controllers0&#45;&#45;board.cache_hierarchy.ruby_system.network.routers4 -->
<g id="edge30" class="edge">
<title>board.cache_hierarchy.ruby_system.dma_controllers0&#45;&#45;board.cache_hierarchy.ruby_system.network.routers4</title>
<path fill="none" stroke="#381526" d="M226.46,-45.51C223.43,-50.55 220.27,-55.82 217.24,-60.86"/>
<polygon fill="#381526" stroke="#381526" points="229.57,-47.13 231.71,-36.75 223.57,-43.52 229.57,-47.13"/>
<polygon fill="#381526" stroke="#381526" points="214.14,-59.23 211.99,-69.6 220.14,-62.83 214.14,-59.23"/>
</g>
<!-- board.cache_hierarchy.ruby_system.dma_controllers1 -->
<g id="node12" class="node">
<title>board.cache_hierarchy.ruby_system.dma_controllers1</title>
<path fill="#e5bcd0" stroke="#000000" d="M73.65,-225.2C73.65,-225.2 170.65,-225.2 170.65,-225.2 176.65,-225.2 182.65,-231.2 182.65,-237.2 182.65,-237.2 182.65,-249.2 182.65,-249.2 182.65,-255.2 176.65,-261.2 170.65,-261.2 170.65,-261.2 73.65,-261.2 73.65,-261.2 67.65,-261.2 61.65,-255.2 61.65,-249.2 61.65,-249.2 61.65,-237.2 61.65,-237.2 61.65,-231.2 67.65,-225.2 73.65,-225.2"/>
<text text-anchor="middle" x="122.15" y="-239.5" font-family="Arial" font-size="14.00" fill="#000000">dma_controllers1</text>
</g>
<!-- board.cache_hierarchy.ruby_system.dma_controllers1&#45;&#45;board.cache_hierarchy.ruby_system.network.routers5 -->
<g id="edge31" class="edge">
<title>board.cache_hierarchy.ruby_system.dma_controllers1&#45;&#45;board.cache_hierarchy.ruby_system.network.routers5</title>
<path fill="none" stroke="#381526" d="M134.93,-215.92C137.77,-209.86 140.78,-203.43 143.62,-197.36"/>
<polygon fill="#381526" stroke="#381526" points="131.68,-214.6 130.61,-225.14 138.02,-217.57 131.68,-214.6"/>
<polygon fill="#381526" stroke="#381526" points="146.82,-198.78 147.89,-188.24 140.48,-195.81 146.82,-198.78"/>
</g>
</g>
</svg>
